<svg xmlns="http://www.w3.org/2000/svg" viewBox="0 0 149 151" stroke="#000" stroke-linecap="round" stroke-linejoin="round" fill="#fff" fill-rule="evenodd"><path d="M74.3721.8721c-40.5895 0-73.5 34.1425-73.5 76.2546 0 33.6978 21.0577 62.2754 50.267 72.3553 3.675.7001 5.0155-1.6571 5.0155-3.6679l-.105-14.1961c-20.44 4.6078-24.759-8.9913-24.759-8.9913-3.346-8.8061-8.1602-11.1511-8.1602-11.1511-6.6798-4.7286.525-4.6375.525-4.6375 7.3797.5304 11.2647 7.8575 11.2647 7.8575 6.559 11.6551 17.2077 8.2846 21.3902 6.3298.6686-4.9174 2.5725-8.2846 4.6655-10.1849-16.3152-1.9251-33.4774-8.4701-33.4774-37.6899 0-8.33 2.8664-15.1252 7.5599-20.4645-.749-1.9354-3.2795-9.6951.7263-20.1897 0 0 6.1635-2.0475 20.2125 7.819 5.859-1.6975 12.145-2.5375 18.375-2.5637 6.244.0279 12.5335.875 18.4012 2.5725 14.0245-9.877 20.195-7.8192 20.195-7.8192 4.0198 10.5054 1.4875 18.2526.735 20.1811 4.711 5.3375 7.5548 12.1328 7.5548 20.4645 0 29.295-17.1902 35.7454-33.565 37.6338 2.6478 2.3626 4.9875 7 4.9875 14.112l-.098 20.9248c0 2.0299 1.337 4.403 5.061 3.675 29.1882-10.1117 50.2285-38.6891 50.2285-72.3695 0-42.1121-32.9105-76.2546-73.5-76.2546z" fill="#000" stroke="none"/></svg>