 <svg
      xmlns="http://www.w3.org/2000/svg"
      version="1.1"
      viewBox="0 0 242.3 302.47"
    >
      <defs>
        <filter
          id="filter3946"
          width="1.044"
          height="1.213"
          x="-0.022"
          y="-0.106"
          colorInterpolationFilters="sRGB"
        >
          <feGaussianBlur stdDeviation="1.684"></feGaussianBlur>
        </filter>
        <linearGradient
          id="linearGradient3938"
          x1="23.5"
          x2="23.5"
          y1="409.71"
          y2="351.31"
          gradientTransform="translate(572 237.19)"
          gradientUnits="userSpaceOnUse"
        >
          <stop offset="0" stopColor="#2e3436"></stop>
          <stop offset="1" stopColor="#d8571d"></stop>
        </linearGradient>
        <linearGradient
          id="linearGradient2855"
          x1="314.26"
          x2="296.51"
          y1="237.45"
          y2="181.08"
          gradientUnits="userSpaceOnUse"
        >
          <stop offset="0" stopColor="#eb7331"></stop>
          <stop offset="1" stopColor="#cf4913"></stop>
        </linearGradient>
      </defs>
      <g transform="translate(-478.85 -441.13)">
        <path
          fill="#eb7331"
          d="M700.29 554.36c0 7.235-.625 114.57-1.82 121.43-9.137 52.42-51.57-8.19-102.54-8.19-50.184 0-92.094 61.82-102.09 10.6-1.485-7.606-2.266-115.75-2.266-123.83 0-62.539 46.721-113.23 104.36-113.23 57.635 0 104.36 50.696 104.36 113.23z"
        ></path>
        <path
          fill="url(#linearGradient2855)"
          d="M358.57 237.01c0 23.078-18.708 41.786-41.786 41.786s-41.786-18.708-41.786-41.786 18.708-41.786 41.786-41.786 41.786 18.708 41.786 41.786z"
          transform="translate(171.62 194.1) scale(1.3547)"
        ></path>
        <path
          fill="#fff"
          d="M358.57 237.01c0 23.078-18.708 41.786-41.786 41.786s-41.786-18.708-41.786-41.786 18.708-41.786 41.786-41.786 41.786 18.708 41.786 41.786z"
          transform="translate(303.52 290.83) scale(.93162)"
        ></path>
        <path
          fill="#2e3436"
          d="M358.57 237.01c0 23.078-18.708 41.786-41.786 41.786s-41.786-18.708-41.786-41.786 18.708-41.786 41.786-41.786 41.786 18.708 41.786 41.786z"
          transform="translate(458.98 407.14) scale(.44088)"
        ></path>
        <path
          fill="#fff"
          d="M358.57 237.01c0 23.078-18.708 41.786-41.786 41.786s-41.786-18.708-41.786-41.786 18.708-41.786 41.786-41.786 41.786 18.708 41.786 41.786z"
          transform="translate(563.25 473.67) scale(.13628)"
        ></path>
        <path
          fill="url(#linearGradient3938)"
          d="M672 601.57v9.98c0 3.329-14.272 6.01-32 6.01h-89c-17.728 0-32-2.681-32-6.01v-9.98c29.769-1.106 128.38-28.819 153 0z"
        ></path>
        <path
          fill="#fff"
          d="M556.47 596.32c-7.636 1.27-14.707 2.438-20.938 3.375a9.056 9.056 0 00-.031.688v20.344c0 4.055 2.67 7.343 6 7.343h10c3.33 0 6-3.288 6-7.343v-20.344c0-1.51-.393-2.9-1.031-4.063z"
        ></path>
        <path
          fill="#2e3436"
          d="M592.25 604.88c-14.774 0-26.989 5.512-28.969 12.688h57.937c-1.98-7.175-14.195-12.688-28.969-12.688z"
        ></path>
        <path
          fill="#fff"
          d="M626.19 588.51c-1.912.007-3.853.03-5.813.094a9.076 9.076 0 00-.03.812v20.375c0 4.056 2.7 7.313 6.03 7.313h9.97c3.33 0 6-3.257 6-7.313v-20.375-.094c-5.067-.574-10.498-.834-16.157-.812z"
        ></path>
        <path
          fill="#d3d7cf"
          d="M-108 783.36c0 10.493-40.742 19-91 19s-91-8.507-91-19 40.742-19 91-19 91 8.507 91 19z"
          filter="url(#filter3946)"
          transform="matrix(1.2747 0 0 1 853.67 -62.807)"
        ></path>
        <path
          fill="#eb7331"
          d="M46.669 27.052a6.01 6.01 0 11-12.021 0 6.01 6.01 0 1112.021 0z"
          transform="translate(480.97 446.43)"
        ></path>
        <path
          fill="#eb7331"
          d="M46.669 27.052a6.01 6.01 0 11-12.021 0 6.01 6.01 0 1112.021 0z"
          transform="translate(471.78 462.34)"
        ></path>
        <path
          fill="#d9581e"
          d="M528.8 479.98c.148.521.25 1.056.25 1.625 0 3.32-2.68 6.031-6 6.031a6.021 6.021 0 01-4-1.531c.721 2.511 3.007 4.344 5.75 4.344 3.32 0 6.031-2.68 6.031-6 0-1.785-.796-3.368-2.031-4.469z"
        ></path>
        <path
          fill="#d9581e"
          d="M518.46 495.89c.103.363.174.735.174 1.131 0 2.31-1.866 4.198-4.176 4.198a4.191 4.191 0 01-2.784-1.066 4.16 4.16 0 004.002 3.024c2.31 0 4.198-1.866 4.198-4.177a4.156 4.156 0 00-1.414-3.11z"
        ></path>
        <path
          fill="#eb7331"
          d="M46.669 27.052a6.01 6.01 0 11-12.021 0 6.01 6.01 0 1112.021 0z"
          transform="matrix(-1 0 0 1 706.55 439.71)"
        ></path>
        <path
          fill="#eb7331"
          d="M46.669 27.052a6.01 6.01 0 11-12.021 0 6.01 6.01 0 1112.021 0z"
          transform="matrix(-1 0 0 1 715.74 455.62)"
        ></path>
        <path
          fill="#d9581e"
          d="M658.61 475.73c-.165.521-.28 1.056-.28 1.625 0 3.32 3.002 6.031 6.72 6.031 1.716 0 3.291-.587 4.48-1.531-.807 2.511-3.368 4.344-6.44 4.344-3.718 0-6.755-2.68-6.755-6 0-1.785.892-3.368 2.275-4.469z"
        ></path>
        <path
          fill="#d9581e"
          d="M671.53 486.69a4.117 4.117 0 00-.174 1.131c0 2.31 1.866 4.198 4.176 4.198a4.191 4.191 0 002.784-1.066 4.16 4.16 0 01-4.002 3.024c-2.31 0-4.198-1.866-4.198-4.177 0-1.242.555-2.344 1.414-3.11z"
        ></path>
        <path
          fill="#eb7331"
          d="M46.669 27.052a6.01 6.01 0 11-12.021 0 6.01 6.01 0 1112.021 0z"
          transform="matrix(-1 0 0 1 724.93 469.76)"
        ></path>
        <path
          fill="#d9581e"
          d="M676.75 503.66a5.916 5.916 0 00-.25 1.625c0 3.32 2.68 6.031 6 6.031a6.021 6.021 0 004-1.531c-.721 2.511-3.007 4.344-5.75 4.344-3.32 0-6.031-2.68-6.031-6 0-1.784.796-3.368 2.031-4.469z"
        ></path>
      </g>
    </svg>