<?xml version="1.0" standalone="no"?>
<!DOCTYPE svg PUBLIC "-//W3C//DTD SVG 20010904//EN" "http://www.w3.org/TR/2001/REC-SVG-20010904/DTD/svg10.dtd">
<!-- Created using Krita: https://krita.org -->
<svg xmlns="http://www.w3.org/2000/svg" 
    xmlns:xlink="http://www.w3.org/1999/xlink"
    xmlns:krita="http://krita.org/namespaces/svg/krita"
    xmlns:sodipodi="http://sodipodi.sourceforge.net/DTD/sodipodi-0.dtd"
    width="737.28pt"
    height="737.28pt"
    viewBox="0 0 737.28 737.28">
<defs/>
<path id="shape0" transform="translate(73.4399997066473, 40.3200261226885)" fill="#cf5025" fill-rule="evenodd" d="M590.76 284.76C590.76 99.4574 481.264 1.42109e-14 295.2 0C109.136 -2.13163e-14 1.13687e-13 103.777 0 289.08C146.759 520.507 151.265 684.28 295.2 671.04C450.949 681.3 449.217 517.969 590.76 284.76Z" sodipodi:nodetypes="ccccc"/><path id="shape1" transform="matrix(1.69176077313035 0.0140204292969077 -0.0145291828563574 1.75314900146779 159.994601984099 243.140420979701)" fill="none" stroke="#ffffff" stroke-width="4.32" stroke-linecap="square" stroke-linejoin="bevel" d="M0 7.2C18.0216 3.66181 36.246 2.96406 54.72 5.76C63.4224 8.65707 71.4377 10.661 84.48 19.2C96.5657 22.366 95.9656 7.95937 96.48 0" sodipodi:nodetypes="cccc"/><path id="shape2" transform="matrix(1.69176077313035 0.0140204292969077 -0.0145291828563574 1.75314900146779 239.289753491528 255.789940994899)" fill="#ffffff" fill-rule="evenodd" stroke="#ffffff" stroke-width="1.6176" stroke-linecap="square" stroke-linejoin="bevel" d="M7.06988 0C-5.73235 17.1549 0.594377 27.5508 12.2299 31.92C32.5057 35.3289 36.4652 28.9932 33.4699 12C32.9992 6.19528 24.1992 2.19528 7.06988 0Z" sodipodi:nodetypes="cccc"/><path id="shape3" transform="matrix(1.69176077313035 0.0140204292969077 -0.0145291828563574 1.75314900146779 235.854318798839 298.492284253032)" fill="#ffffff" fill-rule="evenodd" stroke="#ffffff" stroke-width="1.6176" stroke-linecap="square" stroke-linejoin="bevel" d="M6.99751 38.6921C16.4179 36.2557 25.5258 35.0375 33.075 39.8951C41.9365 44.1183 43.6413 51.2679 45.7794 58.2402C56.8878 99.1176 68.1943 137.314 73.6956 177.183L70.7111 0C49.6189 6.87849 32.4589 22.4609 9.67613 15.6528C-2.26031 22.3047 -3.15319 29.9844 6.99751 38.6921Z" sodipodi:nodetypes="ccccccc"/><path id="shape4" transform="matrix(1.69176077313035 0.0140204292969077 -0.0145291828563574 1.75314900146779 8.33881201598723 6.06874234529462)" fill="#ffffff" fill-rule="evenodd" stroke="#ffffff" stroke-width="1.6176" stroke-linecap="square" stroke-linejoin="bevel" d="M119.28 78.48C63.5351 17.6258 37.5876 17.7305 0 0C29.4899 34.4589 56.9594 54.1469 65.9311 86.3259C61.1777 92.1577 42.6941 124.102 44.7064 137.897C72.3421 101.486 97.2 81.68 119.28 78.48Z" sodipodi:nodetypes="ccccc"/><path id="shape5" transform="matrix(1.69176077313035 0.0140204292969077 -0.0145291828563574 1.75314900146779 7.94553812011983 3.61022796523936)" fill="#cf5025" fill-rule="evenodd" stroke="none" stroke-width="1.6176" stroke-linecap="square" stroke-linejoin="bevel" d="M117.124 91.6404C112.256 70.0568 25.8744 19.5638 0 0C21.3295 8.13751 99.9295 32.9551 135.124 72.2004C131.124 80.3604 125.124 86.8404 117.124 91.6404Z" sodipodi:nodetypes="cccc"/><path id="shape0" transform="matrix(-1.69176073394822 -0.0140204289721867 -0.0145291825198534 1.75314896086388 567.702059073741 247.789544100351)" fill="none" stroke="#ffffff" stroke-width="4.32" stroke-linecap="square" stroke-linejoin="bevel" d="M0 7.2C18.0216 3.66181 36.246 2.96406 54.72 5.76C63.4224 8.65707 71.4377 10.661 84.48 19.2C96.5657 22.366 95.9656 7.95937 96.48 0" sodipodi:nodetypes="cccc"/><path id="shape1" transform="matrix(-1.69176073394822 -0.0140204289721867 -0.0145291825198534 1.75314896086388 488.208147928017 259.123103058113)" fill="#ffffff" fill-rule="evenodd" stroke="#ffffff" stroke-width="1.6176" stroke-linecap="square" stroke-linejoin="bevel" d="M7.06988 0C-5.73235 17.1549 0.594376 27.5508 12.2299 31.92C32.5057 35.3289 36.4652 28.9932 33.4699 12C32.9992 6.19528 24.1992 2.19528 7.06988 0Z" sodipodi:nodetypes="cccc"/><path id="shape6" transform="matrix(1.69176077313035 0.0140204292969077 -0.0145291828563574 1.75314900146779 429.667383275519 482.33786574072)" fill="#ffffff" fill-rule="evenodd" stroke="none" stroke-width="1.6176" stroke-linecap="square" stroke-linejoin="bevel" d="M0 39.855C11.4092 31.0242 9.98579 14.3774 12.2883 0C20.9103 11.6273 29.4848 23.2807 30.1063 39.2937C30.1063 39.2937 20.0708 39.4808 0 39.855Z" sodipodi:nodetypes="cccc"/><path id="shape01" transform="matrix(-1.69176075754242 0.0140204291677231 0.0145291827224851 1.75314898531423 730.29618235717 4.95957345946583)" fill="#ffffff" fill-rule="evenodd" stroke="#ffffff" stroke-width="1.6176" stroke-linecap="square" stroke-linejoin="bevel" d="M119.28 78.48C63.5351 17.6258 37.5876 17.7305 0 0C29.4899 34.4589 56.3699 53.5891 65.3416 85.7681C60.5882 91.5999 42.6941 124.102 44.7064 137.897C72.3421 101.486 97.2 81.68 119.28 78.48Z" sodipodi:nodetypes="ccccc"/><path id="shape11" transform="matrix(-1.69176075754242 0.0140204291677231 0.0145291827224851 1.75314898531423 730.689456249414 2.50105910206335)" fill="#cf5025" fill-rule="evenodd" stroke-opacity="0" stroke="#000000" stroke-width="0" stroke-linecap="square" stroke-linejoin="bevel" d="M117.124 91.6404C112.256 70.0568 25.8744 19.5638 0 0C21.3295 8.13751 99.9295 32.9551 135.124 72.2004C131.124 80.3604 125.124 86.8404 117.124 91.6404Z" sodipodi:nodetypes="cccc"/>
</svg>
